PathFileType	4	(X/Y/Z)	9_coords_data.trc
DataRate	CameraRate	NumFrames	NumMarkers	Units	OrigDataRate	OrigDataStartFrame	OrigNumFrames
30.0	30.0	6	21	m	30.0	21	41
Frame#	Time	THUMB_TIP	THUMB_IP	THUMB_MCP	THUMB_CMC	INDEX_TIP	INDEX_DIP	INDEX_PIP	INDEX_MCP	MIDDLE_TIP	MIDDLE_DIP	MIDDLE_PIP	MIDDLE_MCP	RING_TIP	RING_DIP	RING_PIP	RING_MCP	PINKY_TIP	PINKY_DIP	PINKY_PIP	PINKY_MCP	WRIST
X1	Y1	Z1	X2	Y2	Z2	X3	Y3	Z3	X4	Y4	Z4	X5	Y5	Z5	X6	Y6	Z6	X7	Y7	Z7	X8	Y8	Z8	X9	Y9	Z9	X10	Y10	Z10	X11	Y11	Z11	X12	Y12	Z12	X13	Y13	Z13	X14	Y14	Z14	X15	Y15	Z15	X16	Y16	Z16	X17	Y17	Z17	X18	Y18	Z18	X19	Y19	Z19	X20	Y20	Z20	X21	Y21	Z21
19	0.6666666666666637	0.4785522417147289	-0.018240409125951706	-0.1712984226334135	0.4833459745841939	-0.02304751909423486	-0.14934593259403423	0.4766713347825634	-0.029086541733648885	-0.11954996996351769	0.47659472545270753	-0.03218244056208408	-0.07504941332144088	0.5673988026431136	0.028914874822336678	-0.1734163631291018	0.5569939052123609	0.019351528973058807	-0.16209026381721975	0.5411585438275955	0.008945762787716305	-0.14556842394056352	0.5144079830505017	-0.007543682792343298	-0.11682574180104721	0.5925118552179929	0.04057265315106917	-0.1454181371983772	0.5798708857215574	0.0300803967907729	-0.13779459165447122	0.5575441536495723	0.018328175709237615	-0.123206518284882	0.5243248803303643	-3.705540587561895e-05	-0.09964073615841251	0.5972375566227375	0.039886120211709286	-0.11628568179386051	0.5839454414266735	0.031083924458770062	-0.10786897082451502	0.5638493811713875	0.02101715283660055	-0.0971457040497396	0.5332559549983402	8.7131397883633e-05	-0.08099958031773613	0.6006244628443147	0.025094829358011106	-0.06376167008043998	0.5848946532292766	0.0192191507542816	-0.06043759270162763	0.5651881944692532	0.012484798346549808	-0.05777000956553413	0.5337158606150528	-0.005132503783405795	-0.05784949812836149	0.4622830810018609	-0.023011742144276925	-0.051989820119430985
20	0.6999999999999968	0.48294636245507816	-0.02110337839422205	-0.1710756597781698	0.4864747293960281	-0.025197317460373903	-0.14874204632999155	0.4783145923095954	-0.030400152134602454	-0.1191588978484105	0.47718069775957483	-0.032347855070495535	-0.07460768309030363	0.5696034216200094	0.027271710238507718	-0.17243769491392885	0.558518042023745	0.018313554812414257	-0.1612633577716785	0.5419176371601712	0.00864431210342298	-0.14504786712846784	0.5145455889365455	-0.007522264753416108	-0.11670975034602377	0.5938769389109999	0.03924411751566287	-0.14478533289752726	0.5807188229318203	0.029418279473281794	-0.1371487832418679	0.5578054494721096	0.018586105073985282	-0.12275952111766386	0.5242418129980271	0.00043253581530611207	-0.09951993956364308	0.5984262705698083	0.03870073561857307	-0.11564601324748436	0.5847152302115266	0.03050537896074379	-0.10728877078692683	0.5641685603765757	0.021207492931194283	-0.09672640111554043	0.5330985980392161	0.0008354634306310116	-0.08077777457958923	0.6005397339408888	0.025461416419007454	-0.06369449051981402	0.5846982227353844	0.019949922186457858	-0.060278359074676824	0.5649078530860651	0.01349769664278222	-0.057535719164509946	0.5335222512778925	-0.004273824858423869	-0.05751395518033553	0.4622830810018609	-0.023011742144276925	-0.051989820119430985
21	0.7333333333333302	0.489134430268671	-0.024773469463820086	-0.17032403052153822	0.49079249076457543	-0.02794732288352242	-0.14762650885369605	0.4806019695569048	-0.03211030991699293	-0.11851220280881197	0.47798068811298233	-0.032527640643831957	-0.07398305821051343	0.5726665608730193	0.024953218304159197	-0.17081491075442412	0.5606674375455671	0.016850268963476522	-0.15993542311230946	0.5430258614884674	0.008204200701764308	-0.1442500754644126	0.5147771027236249	-0.007493648873276304	-0.11651523742693465	0.5956586358972175	0.03757145311727339	-0.1436306035929919	0.5818609340733616	0.028595044495459132	-0.13607762321209682	0.5582028896141538	0.018923036513769476	-0.12207195493213668	0.5241479192235983	0.001056724984520252	-0.09932988323586855	0.5997865674004269	0.03741815055163655	-0.11461914053420313	0.5855676063214044	0.029987810795515824	-0.10639653772597679	0.5644722074768532	0.021661044547920727	-0.0961092110349831	0.5328594493348999	0.0018988158146707734	-0.08046284813004345	0.6003634385129708	0.026047702634116043	-0.06350471463908403	0.5843747902385729	0.02104046865794218	-0.059998900287832835	0.5644696800691409	0.01498113982080107	-0.057191206895354396	0.5332161595637618	-0.003021036825579748	-0.05704106358933381	0.4622830810018609	-0.023011742144276925	-0.051989820119430985
22	0.7666666666666633	0.49698072300514073	-0.029148258744367994	-0.16865052716648798	0.49615904521917176	-0.03119472284574587	-0.14577834252448635	0.4835050877373058	-0.03418859947115782	-0.11749877281773624	0.4789724738755703	-0.032737143540108926	-0.07314520827935189	0.5763804846485606	0.02195410949673704	-0.16847650354736599	0.5633120360018724	0.014949809583041151	-0.15807672313199794	0.5444418336380069	0.007605994632043034	-0.1431772708698421	0.5151088058682212	-0.007482418915085942	-0.1162412475462743	0.5977030032261925	0.035599452821348465	-0.1419604736214255	0.5832007930427178	0.027625315346215484	-0.13460526925159355	0.5587141205482935	0.019301661169559226	-0.12116915369320941	0.524050862223157	0.0017980803789521271	-0.09907320151206234	0.6011973577282678	0.03607454448035674	-0.11321745874334832	0.5864181447505774	0.02954774530693549	-0.10521897411750214	0.5647307012396238	0.02233857655298399	-0.09532641838926653	0.5325404146683019	0.003220069010451021	-0.08006244270131779	0.6000917955814172	0.026750582264052802	-0.06310302068905871	0.5839222796072051	0.02240637751750263	-0.05954287486623766	0.563875969590079	0.016851215501473837	-0.056697238088126434	0.5327905861034232	-0.0014387830697210058	-0.05645570806257283	0.4622830810018608	-0.023011742144276925	-0.051989820119430985
23	0.7999999999999965	0.5060228492331637	-0.03403819234716021	-0.16575924318208324	0.5022512849868567	-0.034761808347776535	-0.143104184519179	0.48686732869503657	-0.03646969701351532	-0.11609979589220193	0.4800608607305442	-0.03290355079338303	-0.07215841909327847	0.5803997064845862	0.018470281674275446	-0.16540246130272185	0.5661981302816982	0.012782946955159136	-0.15570867684327072	0.5460324641403428	0.006979348035602295	-0.14186403955454707	0.5154850655575117	-0.007407027198924165	-0.11591168433516347	0.5998502974084919	0.03342515121882983	-0.1397805951397284	0.5846203871266349	0.02660196203204246	-0.13274540344881558	0.5592802250075621	0.01977606331119952	-0.12006893546944897	0.5239251671241696	0.0026809563602339104	-0.09876341690272511	0.6025541967581705	0.03473580433219059	-0.11141950527642003	0.5872016366811474	0.029226512577505748	-0.10374183613512722	0.5649185566984966	0.02325406493386528	-0.09436238014713111	0.5321230954665678	0.004789892791895789	-0.07958899516951712	0.5997376902729473	0.027438497727915512	-0.06246596660194781	0.5833759598519254	0.02390443624725258	-0.05888767272347761	0.56316723365708	0.018971785170923572	-0.0560436688660686	0.5322314592915444	0.00043020111833735886	-0.055777255229859546	0.4622830810018608	-0.023011742144276925	-0.051989820119430985
24	0.8333333333333297	0.5157172575996171	-0.039107837617301966	-0.16139413805583186	0.5086599104204873	-0.038457353523253746	-0.1395361710589535	0.4904675321027677	-0.03883187152562784	-0.11428310971164629	0.4812092299187948	-0.032992078619037524	-0.07103879610305275	0.5844370136499876	0.014635375795044037	-0.16159736862719265	0.5691433372774415	0.01045444047595756	-0.15284389829426515	0.5477280423761222	0.006379205456867099	-0.14032241927504752	0.5159017216020114	-0.007249779405830048	-0.11552378682090242	0.6019645036984921	0.031126140884421893	-0.13712711183439902	0.5860463502179287	0.02554989465980151	-0.13053030443902708	0.5598974254600905	0.02031206767292848	-0.11877409533640831	0.523802417074878	0.003670235280382461	-0.0983694952352091	0.6038133679632309	0.03332207249422514	-0.10924392786830855	0.5879143644027137	0.028918498745551302	-0.10197548759389952	0.5650685999062036	0.024271965604790502	-0.09321987491734629	0.5316339067694191	0.006505913181784062	-0.07903504110964732	0.5993445033657091	0.027862874384467773	-0.061631746292426404	0.5828028342585958	0.02528894027108952	-0.058061305657047924	0.5624174562975309	0.021116366056951663	-0.055261661248905414	0.5315629337455253	0.0024395569020754237	-0.05501940336953415	0.4622830810018608	-0.023011742144276925	-0.051989820119430985
